<svg width="81" height="81" viewBox="0 0 81 81" fill="none" xmlns="http://www.w3.org/2000/svg">
<circle cx="40.5" cy="40.5" r="40.5" fill="#F5E1AD"/>
<path d="M41.1084 27.2037C44.2341 27.2037 47.2791 28.1955 49.8052 30.0364C52.3313 31.8773 54.208 34.4723 55.1652 37.4478C56.1225 40.4233 56.1108 43.6258 55.132 46.5943C54.1531 49.5627 52.2576 52.144 49.7182 53.9665C47.1788 55.789 44.1266 56.7587 41.001 56.7359C37.8754 56.7132 34.8377 55.6992 32.3251 53.84L41.1084 41.97V27.2037Z" fill="white"/>
<path d="M44.1912 16.4556V19.5675C44.1913 19.6274 44.1796 19.6867 44.1568 19.742C44.1339 19.7973 44.1004 19.8476 44.058 19.89C44.0157 19.9323 43.9654 19.9659 43.9101 19.9887C43.8547 20.0116 43.7954 20.0233 43.7356 20.0231H43.3866V21.5354C42.6303 21.4494 41.8696 21.4074 41.1084 21.4094C40.4351 21.4076 39.7621 21.44 39.092 21.5064V20.0231H38.7527C38.6928 20.0233 38.6335 20.0116 38.5782 19.9887C38.5228 19.9659 38.4726 19.9323 38.4302 19.89C38.3879 19.8476 38.3543 19.7973 38.3315 19.742C38.3086 19.6867 38.2969 19.6274 38.2971 19.5675V16.4556C38.2969 16.3958 38.3086 16.3365 38.3315 16.2811C38.3543 16.2258 38.3879 16.1755 38.4302 16.1332C38.4726 16.0908 38.5228 16.0573 38.5782 16.0344C38.6335 16.0116 38.6928 15.9999 38.7527 16H43.7356C43.7954 15.9999 43.8547 16.0116 43.9101 16.0344C43.9654 16.0573 44.0157 16.0908 44.058 16.1332C44.1004 16.1755 44.1339 16.2258 44.1568 16.2811C44.1796 16.3365 44.1913 16.3958 44.1912 16.4556V16.4556Z" fill="white"/>
<path d="M29.3105 25.1514C28.392 25.784 27.5323 26.4977 26.7415 27.2841L26.1792 26.5764L26.0435 26.6927C25.9493 26.7677 25.8294 26.8026 25.7097 26.7899C25.59 26.7772 25.4801 26.7179 25.4037 26.6249L24.3761 25.3743C24.3368 25.3286 24.3073 25.2753 24.2894 25.2178C24.2715 25.1603 24.2656 25.0997 24.2719 25.0398C24.2783 24.9798 24.2968 24.9219 24.3264 24.8694C24.356 24.8169 24.396 24.771 24.4439 24.7345L27.2941 22.4273C27.3883 22.3523 27.5082 22.3174 27.6279 22.3301C27.7476 22.3428 27.8575 22.4021 27.9339 22.4951L28.9615 23.736C29.0007 23.7826 29.0301 23.8367 29.048 23.895C29.0659 23.9533 29.0718 24.0145 29.0655 24.0752C29.0592 24.1358 29.0407 24.1945 29.0111 24.2478C28.9816 24.3012 28.9416 24.348 28.8936 24.3855L28.7676 24.4824L29.3105 25.1514Z" fill="white"/>
<path d="M58.0928 25.3743L57.0749 26.6249C56.9984 26.7177 56.8885 26.7768 56.7688 26.7895C56.6492 26.8022 56.5294 26.7674 56.4351 26.6927L56.2994 26.5764L55.6208 27.4198C54.8418 26.6396 53.9987 25.9261 53.1002 25.2871L53.7013 24.4824L53.5753 24.3855C53.4822 24.307 53.4232 24.1955 53.4105 24.0744C53.3979 23.9533 53.4326 23.832 53.5074 23.736L54.535 22.4951C54.6114 22.4021 54.7213 22.3428 54.841 22.3301C54.9607 22.3174 55.0806 22.3523 55.1748 22.4273L58.0346 24.7345C58.0811 24.7723 58.1195 24.8189 58.1477 24.8718C58.1758 24.9246 58.1931 24.9825 58.1985 25.0422C58.2039 25.1018 58.1974 25.1619 58.1792 25.2189C58.1611 25.276 58.1317 25.3288 58.0928 25.3743V25.3743Z" fill="white"/>
<path d="M41.2402 40.8154C41.0117 40.8154 40.7882 40.8832 40.5982 41.0102C40.4081 41.1373 40.26 41.3178 40.1726 41.529C40.0851 41.7402 40.0623 41.9726 40.107 42.1968C40.1516 42.421 40.2618 42.6269 40.4235 42.7884C40.5852 42.95 40.7912 43.06 41.0154 43.1045C41.2396 43.1489 41.472 43.1259 41.6831 43.0383C41.8943 42.9507 42.0747 42.8024 42.2015 42.6123C42.3284 42.4221 42.396 42.1986 42.3958 41.97C42.395 41.6639 42.273 41.3705 42.0565 41.1541C41.8399 40.9377 41.5464 40.8159 41.2402 40.8154V40.8154Z" fill="white"/>
<path d="M41.1084 22.8616C37.3291 22.8616 33.6347 23.9823 30.4924 26.082C27.35 28.1816 24.9008 31.166 23.4545 34.6576C22.0083 38.1492 21.6299 41.9912 22.3672 45.6979C23.1045 49.4046 24.9244 52.8094 27.5967 55.4817C30.2691 58.1541 33.6739 59.974 37.3805 60.7113C41.0872 61.4486 44.9293 61.0702 48.4209 59.6239C51.9125 58.1776 54.8968 55.7284 56.9965 52.5861C59.0961 49.4437 60.2168 45.7493 60.2168 41.97C60.2168 39.4607 59.7225 36.9759 58.7623 34.6576C57.802 32.3392 56.3945 30.2327 54.6201 28.4584C52.8457 26.684 50.7392 25.2765 48.4209 24.3162C46.1025 23.3559 43.6178 22.8616 41.1084 22.8616V22.8616ZM55.1758 50.0919C55.1709 50.0997 55.1622 50.1016 55.1574 50.1093C53.7334 52.5559 51.6984 54.5906 49.2516 56.0141C49.2419 56.0209 49.2371 56.0316 49.2264 56.0374C49.2157 56.0432 49.2119 56.0374 49.206 56.0432C46.7455 57.4732 43.9504 58.2264 41.1045 58.2264C38.2587 58.2264 35.4635 57.4732 33.003 56.0432C32.9972 56.0432 32.9894 56.0432 32.9827 56.0374C32.9759 56.0316 32.9671 56.0209 32.9575 56.0141C30.5121 54.5901 28.4784 52.5554 27.0556 50.1093C27.0556 50.1016 27.042 50.0997 27.0372 50.0919C27.0323 50.0841 27.0372 50.0745 27.0284 50.0657C25.6007 47.6069 24.8488 44.8142 24.8488 41.971C24.8488 39.1278 25.6007 36.3351 27.0284 33.8763C27.0284 33.8676 27.0284 33.8588 27.0372 33.8501C27.0459 33.8414 27.0536 33.8346 27.0604 33.8239C28.4853 31.3802 30.5199 29.348 32.9652 27.9259C32.9749 27.9191 32.9798 27.9085 32.9904 27.9027C33.0011 27.8968 33.0079 27.9027 33.0166 27.8939C35.4756 26.4668 38.2682 25.7152 41.1113 25.7152C43.9544 25.7152 46.747 26.4668 49.206 27.8939C49.2148 27.8939 49.2235 27.8939 49.2322 27.9027C49.2409 27.9114 49.2477 27.9191 49.2574 27.9259C51.6997 29.3485 53.7315 31.38 55.1544 33.822C55.1612 33.8327 55.1719 33.8375 55.1777 33.8482C55.1835 33.8588 55.1777 33.8656 55.1864 33.8743C56.6141 36.3331 57.3661 39.1258 57.3661 41.9691C57.3661 44.8123 56.6141 47.605 55.1864 50.0638C55.1797 50.0754 55.1806 50.0841 55.1758 50.0919V50.0919Z" fill="white"/>
</svg>
